<?xml version="1.0" standalone="no"?>
<!DOCTYPE svg PUBLIC "-//W3C//DTD SVG 20010904//EN"
 "http://www.w3.org/TR/2001/REC-SVG-20010904/DTD/svg10.dtd">
<svg version="1.0" xmlns="http://www.w3.org/2000/svg"
 width="16.000000pt" height="16.000000pt" viewBox="0 0 16.000000 16.000000"
 preserveAspectRatio="xMidYMid meet">
<metadata>
Created by potrace 1.11, written by Peter Selinger 2001-2013
</metadata>
<g transform="translate(0.000000,16.000000) scale(0.002033,-0.002033)"
fill="#000000" stroke="none">
<path d="M4015 7838 c53 -43 264 -255 345 -347 142 -160 187 -249 236 -466 4
-16 8 -100 10 -186 3 -168 -11 -261 -56 -384 -44 -118 -132 -243 -222 -315
-53 -42 -155 -97 -198 -105 -122 -26 -157 -26 -243 -1 -147 43 -226 163 -215
325 9 125 76 226 183 276 59 28 181 58 207 52 39 -11 14 31 -78 124 -106 108
-300 230 -460 288 -94 34 -238 67 -360 81 -49 5 -101 12 -116 15 -72 14 -360
20 -453 10 -22 -2 -76 -6 -120 -10 -44 -3 -156 -17 -250 -31 -93 -13 -190 -28
-214 -31 -52 -7 -38 -19 35 -28 27 -4 60 -8 74 -11 14 -2 45 -6 70 -9 116 -15
299 -65 416 -115 270 -115 438 -267 529 -480 75 -176 99 -282 99 -435 0 -118
-22 -193 -74 -249 -103 -112 -302 -157 -433 -98 -92 42 -180 151 -192 238 -8
60 12 133 61 228 l44 87 -37 16 c-80 33 -193 46 -418 47 -305 1 -422 -14 -587
-74 -289 -106 -526 -249 -765 -463 -105 -95 -120 -114 -67 -92 38 16 170 48
244 60 25 4 53 9 62 10 157 30 359 24 536 -15 298 -65 443 -125 546 -225 62
-60 95 -141 101 -250 8 -138 -44 -243 -145 -294 -124 -62 -252 -66 -370 -12
-73 33 -98 64 -116 141 -13 55 1 240 22 294 8 22 1 21 -122 -20 -119 -40 -261
-103 -338 -149 -189 -115 -458 -400 -594 -632 -61 -103 -134 -291 -182 -468
l-20 -70 153 156 c83 86 175 173 202 195 28 21 51 42 53 47 2 4 8 7 14 7 5 0
28 13 51 29 23 15 73 43 111 61 309 144 552 101 704 -122 35 -53 43 -71 52
-128 19 -115 -75 -277 -197 -340 -91 -47 -259 -28 -358 40 -44 30 -128 131
-140 168 -7 24 -7 23 -37 -10 -16 -18 -56 -69 -88 -113 -203 -282 -316 -557
-356 -870 -13 -108 -21 -352 -11 -362 4 -3 11 6 17 21 20 53 94 201 133 265
133 219 294 365 436 396 56 12 182 7 245 -10 124 -33 190 -89 233 -197 49
-119 18 -272 -73 -361 -59 -58 -105 -79 -239 -105 -104 -20 -213 4 -291 63
-18 14 -35 22 -37 18 -9 -15 -26 -89 -32 -138 -3 -27 -8 -59 -10 -70 -9 -43
-19 -246 -19 -365 1 -270 15 -393 68 -600 30 -116 82 -266 87 -250 0 3 2 40 4
82 10 243 61 455 151 626 101 191 159 250 291 296 45 16 174 15 196 -1 7 -5
28 -16 47 -23 138 -53 233 -194 223 -333 -8 -114 -109 -258 -201 -285 -77 -23
-186 -8 -273 37 -22 12 -44 21 -49 21 -31 0 -48 -232 -25 -340 58 -272 262
-606 434 -711 l29 -18 -37 74 c-130 254 -47 541 179 620 74 26 81 27 175 31
338 13 630 -277 620 -616 -8 -261 -201 -485 -480 -554 -107 -27 -118 -28 -250
-32 -99 -2 -152 2 -222 17 -193 40 -365 113 -485 205 -64 49 -63 49 -138 119
l-53 50 33 -60 c47 -84 158 -231 216 -285 59 -55 158 -126 237 -169 172 -95
493 -189 742 -217 33 -3 69 -8 80 -11 11 -2 130 -6 265 -8 279 -4 379 7 634
70 447 109 843 322 1085 581 75 81 76 83 23 95 -11 3 -125 46 -267 102 -242
95 -400 182 -590 325 -82 62 -241 191 -291 237 -6 5 -24 21 -40 34 -167 140
-277 247 -367 359 -66 81 -186 254 -228 329 -94 164 -93 163 -179 348 -48 104
-113 273 -125 325 -2 8 -13 51 -24 95 -37 140 -49 267 -46 460 3 164 8 234 20
275 3 8 7 33 10 55 11 73 72 240 149 406 119 256 179 345 350 515 177 176 339
291 561 399 165 80 284 121 411 141 20 3 46 8 58 10 34 7 217 7 261 -1 187
-31 337 -90 491 -194 353 -238 587 -670 596 -1101 2 -88 -6 -203 -17 -254 -3
-11 -7 -32 -9 -46 -18 -96 -81 -253 -138 -345 -142 -224 -332 -382 -548 -455
-88 -30 -134 -35 -285 -34 -110 1 -145 5 -225 28 -185 53 -335 148 -418 264
-69 97 -101 281 -76 431 39 230 215 366 459 355 168 -8 279 -97 314 -252 15
-68 3 -205 -24 -282 -8 -24 -13 -45 -11 -47 12 -12 182 156 237 235 94 132
121 341 70 538 -28 108 -121 265 -199 336 -224 203 -651 196 -962 -16 -117
-79 -244 -216 -318 -343 -63 -107 -121 -283 -137 -412 -4 -30 -9 -63 -11 -75
-5 -28 -5 -256 1 -331 4 -52 10 -89 31 -203 9 -48 58 -189 83 -242 54 -111
123 -216 205 -310 90 -104 287 -297 361 -355 69 -54 278 -195 289 -195 2 0 61
-32 131 -70 148 -82 300 -153 475 -222 69 -27 134 -53 145 -58 56 -27 750
-250 765 -245 9 3 37 24 62 48 25 23 70 62 99 87 522 442 853 778 1079 1095
341 480 558 932 682 1420 34 134 32 126 53 249 23 129 29 187 39 341 l6 90
-43 -85 c-66 -130 -127 -241 -158 -288 -16 -24 -29 -45 -29 -48 0 -13 -114
-167 -176 -238 -101 -116 -223 -203 -309 -221 -261 -56 -449 66 -449 289 0 83
17 122 78 180 106 101 236 118 407 53 53 -20 99 -37 103 -37 16 0 114 249 130
330 2 14 9 45 15 70 22 99 38 222 46 361 5 89 6 375 1 424 -2 22 -7 76 -11
120 -11 128 -66 358 -81 342 -4 -3 -14 -57 -29 -147 -3 -19 -11 -55 -16 -80
-6 -25 -12 -54 -14 -65 -10 -72 -76 -278 -110 -344 -38 -75 -142 -214 -212
-286 -174 -175 -321 -218 -489 -141 -145 66 -216 213 -177 365 40 155 147 240
321 256 69 6 148 -10 244 -51 32 -13 59 -24 62 -24 17 0 31 148 31 325 0 164
-8 251 -32 350 -4 17 -7 32 -8 35 -1 3 -5 21 -9 40 -12 55 -68 234 -76 245 -4
6 -17 36 -29 69 -31 85 -148 316 -221 437 -117 192 -207 301 -298 356 -52 32
-66 30 -48 -4 7 -16 30 -80 50 -143 81 -255 97 -480 51 -703 -51 -245 -167
-481 -302 -612 -142 -137 -457 -125 -570 22 -30 40 -59 100 -69 143 -12 53
-11 166 2 222 48 205 174 270 478 244 l68 -6 -7 28 c-4 15 -9 38 -11 52 -27
145 -107 343 -191 472 -130 198 -384 428 -708 640 -154 100 -225 139 -441 238
-70 32 -185 74 -229 84 -30 6 -30 6 10 -26z"/>
</g>
</svg>
